<?xml version="1.0" encoding="UTF-8" standalone="no" ?>
<svg xmlns="http://www.w3.org/2000/svg" xmlns:xlink="http://www.w3.org/1999/xlink" version="1.1" width="1080" height="1080" viewBox="0 0 1080 1080" xml:space="preserve">
<defs>
</defs>
<rect x="0" y="0" width="100%" height="100%" fill="transparent"></rect>
<g transform="matrix(1 0 0 1 540 540)" id="e3d27e6d-7d05-4e8a-8f8b-627937cc5705"  >
</g>
<g transform="matrix(1 0 0 1 540 540)" id="ba0a8da4-86cb-4606-9687-f5d217d10d71"  >
<rect style="stroke: none; stroke-width: 1; stroke-dasharray: none; stroke-linecap: butt; stroke-dashoffset: 0; stroke-linejoin: miter; stroke-miterlimit: 4; fill: rgb(255,255,255); fill-rule: nonzero; opacity: 1; visibility: hidden;" vector-effect="non-scaling-stroke"  x="-540" y="-540" rx="0" ry="0" width="1080" height="1080" />
</g>
<g transform="matrix(17.46 0 0 17.46 557.72 557.72)" id="bf93a0f8-a600-4b64-83c8-28eea8f4e950"  >
<rect style="stroke: rgb(0,0,0); stroke-width: 0; stroke-dasharray: none; stroke-linecap: butt; stroke-dashoffset: 0; stroke-linejoin: miter; stroke-miterlimit: 4; fill: rgb(250,204,21); fill-rule: nonzero; opacity: 1;" vector-effect="non-scaling-stroke"  x="-33.085" y="-33.085" rx="0" ry="0" width="66.17" height="66.17" />
</g>
<g transform="matrix(36.42 0 0 39.32 540 522.62)"  >
<path style="stroke: rgb(0,0,0); stroke-width: 1.5; stroke-dasharray: none; stroke-linecap: round; stroke-dashoffset: 0; stroke-linejoin: round; stroke-miterlimit: 4; fill: none; fill-rule: nonzero; opacity: 1;"  transform=" translate(-12, -12)" d="M 9 6.75 L 9 15 M 15 9 L 15 17.25 M 15.503 20.748 L 20.378 18.311 C 20.759 18.121 21 17.731 21 17.305 L 21 4.82 C 21 3.9840000000000004 20.12 3.4400000000000004 19.372 3.814 L 15.503 5.748 C 15.186 5.907 14.813 5.907 14.497 5.748 L 9.503 3.252 C 9.186344578599321 3.093717638783295 8.813655421400677 3.093717638783295 8.497 3.252 L 3.622 5.689 C 3.24 5.88 3 6.27 3 6.695 L 3 19.18 C 3 20.016 3.88 20.56 4.628 20.186 L 8.497 18.252 C 8.814 18.093 9.187 18.093 9.503 18.252 L 14.497 20.749 C 14.814 20.907 15.187 20.907 15.503 20.749 Z" stroke-linecap="round" />
</g>
<g transform="matrix(NaN NaN NaN NaN 0 0)"  >
<g style=""   >
</g>
</g>
<g transform="matrix(NaN NaN NaN NaN 0 0)"  >
<g style=""   >
</g>
</g>
</svg>